HIERARCHY
ROOT Hips
{
	OFFSET 0.00 0.00 0.00
	CHANNELS 6 Xposition Yposition Zposition Xrotation Yrotation Zrotation
	JOINT Spine
	{
		OFFSET -7.057811 -23.982097 1.782175
		CHANNELS 3 Xrotation Yrotation Zrotation
		JOINT Spine1
		{
			OFFSET -7.057811 -23.982097 1.782175
			CHANNELS 3 Xrotation Yrotation Zrotation
			JOINT Neck
			{
				OFFSET 0.000000 0.000000 0.000000
				CHANNELS 3 Xrotation Yrotation Zrotation
				JOINT Head
				{
					OFFSET -10.048860 -9.269406 27.706734
					CHANNELS 3 Xrotation Yrotation Zrotation
					End Site
					{
						OFFSET 0.000000 15.000000 0.000000
					}
				}
			}
			JOINT LeftShoulder
			{
				OFFSET 16.389944 -0.221666 7.758349
				CHANNELS 3 Xrotation Yrotation Zrotation
				JOINT LeftArm
				{
					OFFSET 19.415140 1.845710 -4.776580
					CHANNELS 3 Xrotation Yrotation Zrotation
					JOINT LeftForeArm
					{
						OFFSET 8.388989 10.240831 -7.379467
						CHANNELS 3 Xrotation Yrotation Zrotation
						JOINT LeftHand
						{
							OFFSET 0.279718 0.912235 -0.008746
							CHANNELS 3 Xrotation Yrotation Zrotation
							End Site
							{
								OFFSET -5.000000 0.000000 0.000000
							}
						}
					}
				}
			}
			JOINT RightShoulder
			{
				OFFSET -16.389944 0.221666 -7.758349
				CHANNELS 3 Xrotation Yrotation Zrotation
				JOINT RightArm
				{
					OFFSET -18.128180 11.423306 -1.449747
					CHANNELS 3 Xrotation Yrotation Zrotation
					JOINT RightForeArm
					{
						OFFSET -20.004914 2.614081 3.996847
						CHANNELS 3 Xrotation Yrotation Zrotation
						JOINT RightHand
						{
							OFFSET -1.076810 -1.937465 1.799606
							CHANNELS 3 Xrotation Yrotation Zrotation
							End Site
							{
								OFFSET 5.000000 0.000000 0.000000
							}
						}
					}
				}
			}
		}
	}
	JOINT LeftUpLeg
	{
		OFFSET 9.116570 -1.468459 2.071460
		CHANNELS 3 Xrotation Yrotation Zrotation
		JOINT LeftLeg
		{
			OFFSET -4.911242 41.173894 10.847150
			CHANNELS 3 Xrotation Yrotation Zrotation
			JOINT LeftFoot
			{
				OFFSET 15.653789 19.534050 -38.755391
				CHANNELS 3 Xrotation Yrotation Zrotation
				End Site
				{
					OFFSET 0.000000 -5.000000 5.000000
				}
			}
		}
	}
	JOINT RightUpLeg
	{
		OFFSET -9.116570 1.468459 -2.071460
		CHANNELS 3 Xrotation Yrotation Zrotation
		JOINT RightLeg
		{
			OFFSET -6.546898 32.153396 5.738837
			CHANNELS 3 Xrotation Yrotation Zrotation
			JOINT RightFoot
			{
				OFFSET 8.445788 37.718200 -13.054394
				CHANNELS 3 Xrotation Yrotation Zrotation
				End Site
				{
					OFFSET 0.000000 -5.000000 5.000000
				}
			}
		}
	}
}
MOTION
Frames: 17
Frame Time: 0.016667
0.127261 -0.269563 -0.186160 0.000000 0.000000 0.000000 -178.962903 -94.052083 -165.665248 -178.962903 -94.052083 -165.665248 0.000000 0.000000 0.000000 96.143656 -23.689593 -103.784221 144.878909 79.907321 104.201331 38.376753 73.119508 69.034186 36.976637 43.629939 35.668584 63.467933 15.751296 29.462973 -35.121091 -100.092679 -75.798669 7.212661 -36.898514 -5.427620 51.297283 -42.559096 -48.892721 112.144926 3.979794 170.298972 -105.569020 114.359804 97.190055 24.459645 31.803444 15.752320 -11.879420 -119.993181 -20.024310 74.430980 -65.640196 -82.809945 31.011272 20.143459 12.434682 -1.693751 -98.456459 -11.248894
0.124356 -0.263795 -0.179751 0.000000 0.000000 0.000000 179.851938 -89.440739 -165.171794 179.851938 -89.440739 -165.171794 0.000000 0.000000 0.000000 94.805600 -25.827073 -99.853917 137.139825 77.035513 103.933032 25.432682 78.970282 67.711563 28.236913 49.794508 32.430236 56.121554 7.843031 11.593789 -42.860175 -102.964487 -76.066968 5.936178 -38.196381 -4.677072 45.756140 -40.752357 -41.501663 104.559689 5.823089 158.562406 -107.789676 112.044067 97.402714 23.106667 31.685445 14.754892 -15.924287 -130.803320 -18.288868 72.210324 -67.955933 -82.597286 31.844542 18.315804 11.618129 -3.889779 -111.811649 -9.642298
0.119451 -0.262384 -0.165038 0.000000 0.000000 0.000000 179.097488 -86.677758 -164.817007 179.097488 -86.677758 -164.817007 0.000000 0.000000 0.000000 93.481783 -28.055971 -96.512735 130.500253 74.054390 103.713788 25.950500 78.236619 66.833858 27.477443 42.709175 25.643708 50.875379 -10.906063 -13.326798 -49.499747 -105.945610 -76.286212 4.332807 -47.841461 -4.783373 36.256496 -42.744958 -34.130701 91.681887 7.336488 102.847194 -110.263356 109.875237 97.601910 21.472427 31.718729 13.664557 -19.717112 -141.994829 -15.645229 69.736644 -70.124763 -82.398090 31.011658 17.575670 10.780702 -5.494496 -123.396607 -8.300984
0.111726 -0.265120 -0.151150 0.000000 0.000000 0.000000 177.008438 -79.385516 -164.418369 177.008438 -79.385516 -164.418369 0.000000 0.000000 0.000000 92.225952 -29.144022 -93.987584 128.670703 72.449994 104.203586 29.798980 74.793098 64.608650 31.010194 26.389097 16.607078 48.841553 -26.563824 -29.767451 -51.329297 -107.550006 -75.796414 2.226943 -66.151421 -5.027182 31.801444 -42.361385 -29.485024 81.028481 8.289126 42.701493 -112.411079 108.438532 97.828748 17.763866 34.962409 12.626488 -23.053697 -152.854071 -12.309646 67.588921 -71.561468 -82.171252 28.549283 17.856085 9.941222 -7.880165 -137.395966 -7.254239
0.100046 -0.268473 -0.139814 0.000000 0.000000 0.000000 173.457187 -68.146027 -164.041037 173.457187 -68.146027 -164.041037 0.000000 0.000000 0.000000 91.681045 -30.811293 -92.817253 130.124106 72.179727 105.158782 35.225225 69.314664 61.864436 35.714263 8.933708 6.448094 48.739123 -33.014413 -36.524819 -49.875894 -107.820273 -74.841218 1.830965 -70.477544 -5.151881 27.433091 -44.975455 -27.413023 71.457002 6.350042 18.354225 -113.822156 107.963084 98.146116 13.679470 40.845412 11.883323 -24.582451 -160.096956 -9.404388 66.177844 -72.036916 -81.853884 23.665806 19.111879 8.635080 -9.557939 -147.718351 -6.071802
0.085816 -0.272717 -0.135878 0.000000 0.000000 0.000000 170.475068 -60.356770 -163.572082 170.475068 -60.356770 -163.572082 0.000000 0.000000 0.000000 92.155251 -32.809844 -93.340820 134.316578 73.497656 106.133753 36.286981 65.962237 58.722571 38.039239 -2.249750 -1.760531 48.179506 -36.364558 -39.451800 -45.683422 -106.502344 -73.866247 1.071002 -77.414203 -4.786367 26.681247 -45.610997 -27.174675 68.685800 3.528155 8.979820 -115.015460 107.668491 98.454538 9.576461 49.659253 11.235818 -27.477303 -168.084175 -6.262842 64.984540 -72.331509 -81.545462 20.415858 16.868932 6.439503 -11.674791 -159.715238 -4.367358
0.069922 -0.275745 -0.137389 0.000000 0.000000 0.000000 168.753337 -57.049998 -162.944473 168.753337 -57.049998 -162.944473 0.000000 0.000000 0.000000 93.506584 -34.594086 -95.077232 136.689631 74.276301 106.628150 35.993362 64.148963 56.294940 38.402037 -7.680054 -6.101138 48.031455 -38.108390 -41.090263 -43.310369 -105.723699 -73.371850 2.235422 -62.341988 -4.259744 25.348662 -47.047022 -26.969620 67.609572 1.523375 3.693486 -116.374244 107.167349 98.708862 7.609544 54.968499 10.789743 -30.524393 -174.249926 -3.397790 63.625756 -72.832651 -81.291138 17.828482 12.179565 3.970829 -11.643271 -168.529802 -2.394217
0.054089 -0.278154 -0.142374 0.000000 0.000000 0.000000 168.146189 -56.587290 -162.350845 168.146189 -56.587290 -162.350845 0.000000 0.000000 0.000000 94.643231 -35.244471 -96.557012 136.471796 73.999660 106.797785 35.753176 62.402246 54.018728 38.479115 -8.567005 -6.828101 48.210753 -38.915998 -42.092243 -43.528204 -106.000340 -73.202215 2.890786 -52.986888 -3.831911 26.249718 -45.403728 -26.571396 68.375490 1.606187 4.046023 -118.406677 106.182052 98.919657 6.948178 56.920840 10.597051 -33.764035 -179.113499 -0.592681 61.593323 -73.817948 -81.080343 17.394039 4.370181 1.371431 -10.865851 -176.802951 -0.614293
0.039687 -0.280783 -0.147141 0.000000 0.000000 0.000000 166.691121 -54.398987 -161.716328 166.691121 -54.398987 -161.716328 0.000000 0.000000 0.000000 94.609952 -34.600541 -96.666580 135.084698 73.305437 106.741232 35.199203 61.084239 51.936075 38.718785 -7.635619 -6.134347 50.018953 -39.227066 -44.232512 -44.915302 -106.694563 -73.258768 3.218708 -47.242372 -3.480428 26.590959 -44.210712 -25.964259 68.393844 1.798768 4.533750 -120.289160 105.363711 99.117634 6.202244 59.859308 10.601205 -36.780302 178.198882 1.346639 59.710840 -74.636289 -80.882366 17.474782 0.995526 0.313435 -8.623977 178.809130 0.180637
0.026823 -0.283018 -0.151671 0.000000 0.000000 0.000000 164.988614 -51.553720 -161.336284 164.988614 -51.553720 -161.336284 0.000000 0.000000 0.000000 94.020415 -33.816438 -95.989851 133.607501 72.786016 106.442077 34.412318 60.448058 50.386896 38.847302 -6.112049 -4.929088 51.216552 -39.159722 -45.384753 -46.392499 -107.213984 -73.557923 3.461026 -44.023423 -3.345277 26.892328 -43.857427 -25.981189 68.389947 1.358241 3.425324 -121.677164 104.812778 99.267957 5.359279 63.804696 10.796020 -40.148351 176.503787 2.950186 58.322836 -75.187222 -80.732043 17.733338 0.168892 0.054009 -7.212817 176.587015 0.432439
0.016172 -0.285304 -0.153596 0.000000 0.000000 0.000000 163.047591 -48.455456 -161.016780 163.047591 -48.455456 -161.016780 0.000000 0.000000 0.000000 92.955256 -32.871823 -94.567420 132.210628 72.405941 106.047355 33.175308 60.412759 49.026260 38.606401 -5.029487 -4.019646 52.252608 -39.367413 -46.661181 -47.789372 -107.594059 -73.952645 3.669338 -41.333797 -3.228427 26.736514 -44.281967 -26.163781 68.233269 0.275108 0.688951 -122.241357 104.645988 99.360279 4.371791 68.672643 11.078870 -42.005046 174.825988 4.661919 57.758643 -75.354012 -80.639721 18.439152 1.903585 0.634891 -6.070287 178.059411 0.206449
0.009883 -0.286553 -0.154301 0.000000 0.000000 0.000000 161.636915 -46.327527 -160.827951 161.636915 -46.327527 -160.827951 0.000000 0.000000 0.000000 92.526367 -32.261637 -93.998340 131.868577 72.327589 105.937083 33.011901 60.011782 48.388026 38.423905 -3.813292 -3.026625 51.814122 -38.612986 -45.438688 -48.131423 -107.672411 -74.062917 4.020873 -38.753096 -3.229334 26.597024 -45.666928 -27.134771 68.169612 -1.947218 -4.851162 -122.984930 104.519599 99.541562 3.716299 71.929019 11.258391 -42.031411 173.025540 6.292573 57.015070 -75.480401 -80.458438 18.965413 3.324290 1.143532 -6.268233 179.562570 0.048048
0.006700 -0.286935 -0.154401 0.000000 0.000000 0.000000 160.352854 -44.395947 -160.732316 160.352854 -44.395947 -160.732316 0.000000 0.000000 0.000000 92.479734 -31.883474 -93.982486 131.926718 72.359026 105.939247 33.511367 59.462129 48.301789 37.815955 -2.948631 -2.289311 50.683856 -38.258066 -43.916734 -48.073282 -107.640974 -74.060753 4.482559 -37.498284 -3.442262 26.380603 -47.122365 -28.109288 67.562724 -3.823425 -9.193275 -123.655689 104.518968 99.782911 3.061801 75.139740 11.397538 -40.997191 171.362831 7.521320 56.344311 -75.481032 -80.217089 19.074954 4.318876 1.495926 -7.657198 -179.003125 -0.134038
0.006282 -0.286694 -0.153419 0.000000 0.000000 0.000000 159.883898 -43.709658 -160.703306 159.883898 -43.709658 -160.703306 0.000000 0.000000 0.000000 92.809419 -31.895470 -94.508608 131.877557 72.487611 105.795768 33.343341 59.760254 48.459551 36.991312 -2.188076 -1.648660 49.834474 -38.294132 -43.091039 -48.122443 -107.512389 -74.204232 4.833488 -37.801644 -3.753003 26.541586 -48.049679 -29.061192 67.827906 -4.843253 -11.745611 -124.323823 104.585039 100.073841 2.809121 76.504911 11.555376 -39.799705 169.784762 8.538492 55.676177 -75.414961 -79.926159 18.772556 6.444150 2.198527 -9.123335 -176.599940 -0.546647
0.006294 -0.285684 -0.151274 0.000000 0.000000 0.000000 159.998537 -43.838855 -160.733601 159.998537 -43.838855 -160.733601 0.000000 0.000000 0.000000 92.983349 -31.809385 -94.802959 131.460531 72.667964 105.414649 31.983787 60.936015 48.331622 35.602943 -1.631830 -1.168556 49.442288 -39.317943 -43.740922 -48.539469 -107.332036 -74.585351 5.160964 -37.436670 -3.955516 26.773178 -48.103467 -29.353287 68.522954 -4.631161 -11.633851 -124.742892 104.709375 100.318721 2.698203 77.339588 11.848606 -39.205998 168.658334 9.292441 55.257108 -75.290625 -79.681279 17.680435 9.437102 3.032879 -10.181258 -174.230276 -1.039592
0.006579 -0.285075 -0.148930 0.000000 0.000000 0.000000 160.775752 -45.189084 -160.657873 160.775752 -45.189084 -160.657873 0.000000 0.000000 0.000000 93.039075 -31.571710 -94.937798 130.327355 72.546380 104.943708 30.539170 62.191969 48.203851 34.382833 -1.675671 -1.146792 49.140731 -40.614911 -44.752914 -49.672645 -107.453620 -75.056292 4.836708 -39.498384 -3.989881 27.822237 -47.473733 -29.915833 71.781740 -4.472590 -13.368533 -125.115003 104.820299 100.539975 2.794466 77.151526 12.079418 -38.469777 167.463703 10.019683 54.884997 -75.179701 -79.460025 16.628304 12.709045 3.853248 -9.994556 -171.713268 -1.470308
0.007011 -0.282407 -0.147520 0.000000 0.000000 0.000000 161.927433 -47.254370 -160.553628 161.927433 -47.254370 -160.553628 0.000000 0.000000 0.000000 93.009577 -30.836804 -95.032904 128.373586 71.894610 104.514930 27.498895 64.762043 47.837803 32.475609 -2.300038 -1.464378 49.180299 -41.997268 -46.186628 -51.626414 -108.105390 -75.485070 3.866316 -44.739586 -3.831434 29.405388 -46.850920 -31.015865 77.009223 -4.570209 -19.110695 -125.456526 104.932208 100.753371 2.912321 76.757292 12.198210 -37.786111 167.048554 10.109501 54.543474 -75.067792 -79.246629 14.877797 15.547703 4.227247 -9.935032 -171.064123 -1.577607
